# xmcd
#
# Track frame offsets: 
#        150
#        20728
#        40741
#        62055
#        80338
#        95705
#        108655
#        129812
#        147570
#        166161
#        184374
#        202703
#
# Disc length: 3006 seconds
#
# Revision: 0
# Processed by: cddbd v1.5.2PL0 Copyright (c) Steve Scherf et al.
# Submitted via: ExactAudioCopy v0.95b4
#
DISCID=a20bbc0c
DTITLE=Vanderlei Carvalho - Eu vou cuidar do meu jardim
DYEAR=2006
DGENRE=Pop
TTITLE0=Quem vem pra beira do mar
TTITLE1=Não me acuses
TTITLE2=Colares
TTITLE3=Espumas ao vento
TTITLE4=Sete domingos
TTITLE5=Janaína
TTITLE6=A minha história
TTITLE7=Lua
TTITLE8=Esquinas
TTITLE9=O meu amor é para sempre
TTITLE10=O que haverei de cantar
TTITLE11=Esperando aviões
EXTD=
EXTT0=
EXTT1=
EXTT2=
EXTT3=
EXTT4=
EXTT5=
EXTT6=
EXTT7=
EXTT8=
EXTT9=
EXTT10=
EXTT11=
PLAYORDER=
